<?xml version="1.0" standalone="no"?>
<!DOCTYPE svg PUBLIC "-//W3C//DTD SVG 20010904//EN"
 "http://www.w3.org/TR/2001/REC-SVG-20010904/DTD/svg10.dtd">
<svg version="1.0" xmlns="http://www.w3.org/2000/svg"
 width="362.000000pt" height="362.000000pt" viewBox="0 0 362.000000 362.000000"
 preserveAspectRatio="xMidYMid meet">
<metadata>
Created by potrace 1.14, written by Peter Selinger 2001-2017
</metadata>
<g transform="translate(0.000000,362.000000) scale(0.100000,-0.100000)"
fill="#000000" stroke="none">
<path d="M2793 2643 l-53 -36 0 -106 c-1 -208 -2 -617 -1 -676 l1 -61 168 1
c150 1 172 4 217 24 65 29 102 64 131 126 48 101 28 202 -56 286 l-56 57 73
72 73 72 0 79 c0 56 -4 79 -12 79 -7 0 -102 -89 -210 -197 l-198 -198 0 258
c0 199 -3 257 -12 256 -7 0 -37 -16 -65 -36z m332 -548 c43 -56 28 -141 -31
-180 -21 -13 -49 -18 -118 -19 -70 -1 -93 -4 -98 -16 -4 -8 -7 11 -7 42 l-1
58 86 84 c83 80 88 83 116 74 16 -6 40 -25 53 -43z"/>
<path d="M922 2176 c0 -369 1 -404 16 -408 10 -2 135 -4 279 -3 247 1 265 2
290 21 16 11 36 36 45 54 l17 33 10 -24 c22 -59 78 -86 171 -84 93 2 135 14
178 51 47 39 65 84 67 166 1 32 5 61 8 65 4 3 7 -1 7 -10 0 -14 12 -16 93 -13
110 4 165 23 209 75 l31 36 -27 -47 c-34 -61 -36 -143 -3 -207 24 -48 103
-110 141 -112 11 -1 62 -2 111 -3 l90 -1 3 398 3 397 -21 0 c-12 0 -41 -14
-66 -30 l-44 -31 0 -304 0 -303 -32 4 c-18 3 -43 16 -55 30 -22 23 -23 34 -23
164 l0 138 -54 36 c-30 20 -58 36 -63 36 -4 0 -16 -21 -27 -46 -13 -31 -31
-54 -59 -72 -36 -24 -50 -27 -131 -27 l-90 0 -1 30 c0 42 -30 44 -83 5 -46
-33 -46 -32 -43 -162 2 -60 -1 -70 -26 -98 -25 -28 -36 -32 -78 -33 -99 -1
-129 37 -132 167 -1 50 -2 97 -2 104 -1 20 -18 14 -74 -23 l-52 -35 -1 -60
c-3 -140 -30 -155 -275 -155 l-174 0 -3 312 -2 312 -44 31 c-25 16 -53 30 -64
30 -20 0 -20 -8 -20 -404z"/>
<path d="M2144 2532 c-36 -24 -39 -84 -6 -108 14 -10 13 -12 -7 -19 -33 -10
-8 -37 28 -29 48 12 78 57 72 109 -6 43 -54 69 -87 47z"/>
<path d="M1480 2380 c-13 -6 -70 -19 -205 -44 -146 -28 -147 -28 -160 -60 -7
-17 -12 -32 -10 -34 1 -1 36 4 76 12 41 8 85 17 99 20 14 2 36 7 50 10 14 3
36 8 50 11 14 3 44 9 68 14 23 4 42 6 42 3 0 -12 28 21 33 38 6 24 -21 42 -43
30z"/>
<path d="M542 2217 l-42 -43 38 -37 c21 -20 45 -37 53 -37 20 0 79 56 79 74 0
14 -68 86 -80 86 -3 0 -25 -19 -48 -43z"/>
<path d="M1712 2217 l-42 -43 38 -37 c21 -20 45 -37 53 -37 17 0 79 60 79 76
0 10 -71 84 -81 84 -3 0 -24 -19 -47 -43z"/>
<path d="M789 2144 c-7 -8 -25 -22 -41 -30 l-28 -15 0 -145 c0 -162 -8 -196
-60 -236 -59 -46 -140 -27 -194 46 -32 42 -29 131 7 184 15 23 27 44 27 47 0
14 -50 2 -82 -20 -107 -73 -106 -269 3 -357 94 -76 258 -67 348 21 66 64 75
103 79 324 l4 197 -25 0 c-13 0 -30 -7 -38 -16z"/>
<path d="M2102 1907 c-18 -18 -32 -41 -32 -50 0 -23 49 -77 70 -77 9 0 33 17
54 39 l37 38 -42 42 c-23 22 -45 41 -49 41 -3 0 -20 -15 -38 -33z"/>
<path d="M3209 1772 c-21 -15 -46 -34 -58 -42 -20 -14 -21 -22 -21 -242 l0
-228 45 -11 c25 -6 48 -15 51 -20 3 -5 12 -9 20 -9 12 0 14 44 14 290 0 160
-3 290 -7 290 -5 0 -24 -13 -44 -28z"/>
<path d="M1166 1703 c-20 -20 -36 -41 -36 -47 0 -18 60 -76 78 -76 9 0 31 14
49 32 l33 32 33 -32 c18 -18 40 -32 49 -32 15 0 88 62 88 74 0 6 -48 55 -73
75 -15 12 -21 9 -53 -23 -20 -20 -39 -36 -43 -36 -4 0 -18 12 -32 26 -43 46
-53 47 -93 7z"/>
<path d="M2997 1642 l-57 -37 0 -192 c0 -105 -3 -194 -7 -196 -28 -16 -105 56
-129 120 -9 24 -18 43 -20 43 -2 0 -18 -8 -36 -19 -114 -65 -106 -50 -79 -136
25 -78 21 -187 -9 -269 -27 -70 -97 -146 -153 -167 -47 -17 -49 -43 -4 -49
109 -14 176 8 236 76 61 69 91 196 67 287 l-7 29 38 -31 c21 -17 53 -33 71
-37 32 -6 32 -7 32 -64 0 -44 4 -59 16 -64 9 -3 60 -6 114 -6 118 0 158 15
189 70 25 45 27 87 5 132 -23 48 -55 67 -124 75 -54 5 -60 4 -60 -12 0 -10 -3
-15 -7 -11 -4 4 -8 115 -8 246 0 131 -3 241 -6 244 -2 3 -30 -12 -62 -32z
m178 -572 c0 -10 -14 -17 -45 -21 -55 -8 -65 -4 -67 22 -2 18 3 20 55 17 43
-2 57 -7 57 -18z"/>
<path d="M1946 1608 c-18 -25 -21 -74 -6 -83 17 -10 11 -35 -7 -35 -17 -1 -17
-1 0 -14 18 -14 65 -10 83 8 23 24 36 83 23 108 -23 44 -68 52 -93 16z"/>
<path d="M829 1398 l-57 -41 0 -192 c1 -224 -4 -240 -79 -279 -44 -22 -120
-21 -161 4 -95 58 -106 204 -22 285 38 37 38 45 -2 45 -74 0 -161 -88 -174
-176 -18 -123 40 -232 153 -286 39 -19 64 -23 138 -23 78 1 97 5 141 27 58 30
91 65 117 124 l19 41 123 0 c179 1 219 13 287 87 130 139 53 377 -135 415 -88
18 -136 11 -197 -29 -30 -20 -60 -39 -66 -43 -6 -4 -11 5 -11 21 -1 48 -3 62
-10 61 -5 0 -33 -18 -64 -41z m363 -113 c67 -49 73 -132 13 -192 -36 -36 -32
-35 -202 -35 -46 1 -86 3 -91 6 -6 3 -9 238 -3 242 0 0 58 0 129 0 110 -1 131
-4 154 -21z"/>
<path d="M1596 1425 c-95 -26 -155 -114 -157 -227 -1 -86 16 -142 57 -188 49
-54 107 -80 177 -80 31 0 57 -3 57 -7 0 -5 -10 -25 -23 -45 -26 -43 -76 -83
-124 -99 -45 -15 -37 -32 21 -43 95 -19 190 28 228 112 11 26 24 54 28 62 6
13 47 15 263 17 238 1 258 3 306 23 165 71 203 284 74 415 -44 44 -107 67
-192 71 l-75 3 -61 -45 -60 -45 -5 31 c-3 17 -9 31 -13 31 -4 0 -34 -16 -65
-36 l-57 -37 1 -139 c1 -153 2 -150 -68 -140 l-28 3 0 99 c0 110 -13 155 -58
202 -58 61 -143 84 -226 62z m93 -125 c5 0 20 -11 35 -25 25 -23 26 -29 26
-120 0 -104 3 -99 -65 -96 -48 3 -85 22 -100 52 -18 33 -20 122 -4 150 12 23
67 51 87 44 8 -3 17 -5 21 -5z m699 -9 c32 -17 62 -70 62 -108 0 -46 -19 -81
-56 -104 -31 -19 -98 -24 -251 -20 l-33 1 0 123 0 124 128 -2 c81 0 135 -6
150 -14z"/>
</g>
</svg>
